<svg width="23" height="22" viewBox="0 0 23 22" fill="none" xmlns="http://www.w3.org/2000/svg">
<path fill-rule="evenodd" clip-rule="evenodd" d="M11.0201 2.08065C10.5838 2.41589 10.067 2.93387 9.29965 3.70667L4.52228 8.51802V13.9449C4.52228 16.5415 6.12692 18.8239 8.47951 19.7198C8.374 19.133 8.37501 18.5281 8.48633 17.9351L8.5081 17.8191C8.74771 16.5426 9.68894 15.5105 10.9396 15.1634C11.558 14.9919 12.2111 14.9919 12.8296 15.1634C14.0802 15.5105 15.0214 16.5426 15.2611 17.8191L15.2828 17.9351C15.3941 18.5281 15.3952 19.133 15.2897 19.7198C17.6422 18.8239 19.2469 16.5414 19.2469 13.9449V8.518L14.4695 3.70667C13.7022 2.93387 13.1853 2.41589 12.749 2.08065C12.332 1.76018 12.0902 1.6886 11.8846 1.6886C11.679 1.6886 11.4372 1.76018 11.0201 2.08065ZM20.9355 10.2186L21.417 10.7036C21.7456 11.0345 22.2802 11.0364 22.6111 10.7079C22.9419 10.3793 22.9438 9.84474 22.6153 9.51385L15.6264 2.47526C14.9112 1.75491 14.3149 1.15435 13.7779 0.74169C13.2113 0.306328 12.6115 0 11.8846 0C11.1576 0 10.5579 0.306328 9.99127 0.741689C9.45424 1.15435 8.85796 1.7549 8.14275 2.47525L1.15387 9.51385C0.82532 9.84474 0.827215 10.3793 1.1581 10.7079C1.48899 11.0364 2.02356 11.0345 2.35211 10.7036L2.83368 10.2186V13.9449C2.83368 17.5913 5.3263 20.7644 8.8612 21.5994C10.8498 22.0692 12.9194 22.0692 14.9079 21.5994C18.4428 20.7644 20.9355 17.5913 20.9355 13.9449V10.2186ZM13.4001 20.1625C13.6664 19.5627 13.7448 18.8941 13.6232 18.2466L13.6014 18.1306C13.4797 17.482 13.003 16.964 12.3781 16.7906C12.0551 16.7009 11.7141 16.7009 11.391 16.7906C10.7661 16.964 10.2895 17.482 10.1677 18.1306L10.1459 18.2466C10.0244 18.8941 10.1028 19.5627 10.369 20.1625C11.375 20.2967 12.3942 20.2967 13.4001 20.1625Z" fill="#161616"/>
</svg>
