<svg width="33" height="33" viewBox="0 0 33 33" fill="none" xmlns="http://www.w3.org/2000/svg">
<path fill-rule="evenodd" clip-rule="evenodd" d="M22.895 3.38914C20.3545 2.79322 17.7105 2.79322 15.17 3.38914C13.4044 3.80329 11.8437 4.72847 10.6503 6.00262C13.2028 5.55501 15.8235 5.62797 18.3538 6.22151C22.534 7.20206 25.798 10.466 26.7785 14.6462C27.3721 17.1766 27.445 19.7973 26.9974 22.3498C28.2716 21.1563 29.1968 19.5956 29.6109 17.8301C30.2068 15.2896 30.2068 12.6456 29.6109 10.1051C28.8292 6.77273 26.2273 4.1708 22.895 3.38914ZM14.6463 1.15666C17.5313 0.479943 20.5337 0.479942 23.4186 1.15666C27.5989 2.13721 30.8628 5.40117 31.8434 9.5814C32.5201 12.4664 32.5201 15.4688 31.8434 18.3538C31.066 21.668 28.8534 24.4059 25.8871 25.8869C24.406 28.8534 21.6679 31.066 18.3538 31.8433C15.4688 32.5201 12.4664 32.5201 9.58145 31.8433C5.40122 30.8628 2.13726 27.5988 1.15671 23.4186C0.479989 20.5336 0.479989 17.5312 1.15671 14.6462C1.93409 11.3322 4.14663 8.59402 7.11312 7.11298C8.59414 4.14664 11.3321 1.93407 14.6463 1.15666ZM9.64383 8.5751C6.53408 9.47989 4.1344 11.993 3.38919 15.1699C2.79326 17.7104 2.79326 20.3544 3.38919 22.8949C4.17085 26.2273 6.77278 28.8292 10.1051 29.6109C12.6456 30.2068 15.2896 30.2068 17.8301 29.6109C20.9542 28.8781 23.4363 26.5454 24.3784 23.5109C24.4412 23.3086 24.4972 23.1032 24.5461 22.8949C25.142 20.3544 25.142 17.7104 24.5461 15.1699C23.7644 11.8376 21.1625 9.23565 17.8301 8.45399C15.2896 7.85806 12.6456 7.85806 10.1051 8.45399C9.94973 8.49044 9.79593 8.53084 9.64383 8.5751Z" fill="#4376FE"/>
</svg>
