<svg width="23" height="22" viewBox="0 0 23 22" fill="none" xmlns="http://www.w3.org/2000/svg">
<path fill-rule="evenodd" clip-rule="evenodd" d="M6.84791 1.85994C6.02447 1.66678 5.16751 1.66678 4.34407 1.85994C3.56236 2.0433 2.95199 2.65367 2.76863 3.43538C2.57547 4.25882 2.57547 5.11578 2.76863 5.93922C2.95199 6.72093 3.56236 7.3313 4.34407 7.51466C5.16751 7.70781 6.02447 7.70781 6.8479 7.51466C7.62962 7.3313 8.23999 6.72093 8.42335 5.93921C8.6165 5.11578 8.6165 4.25882 8.42335 3.43538C8.23999 2.65367 7.62962 2.0433 6.84791 1.85994ZM3.9524 0.190185C5.03346 -0.063395 6.15852 -0.0633952 7.23958 0.190185C8.65545 0.522305 9.76098 1.62783 10.0931 3.04371C10.3467 4.12476 10.3467 5.24983 10.0931 6.33088C9.76098 7.74676 8.65545 8.85229 7.23957 9.18441C6.15852 9.43799 5.03346 9.43799 3.9524 9.18441C2.53653 8.85229 1.431 7.74676 1.09888 6.33089C0.845296 5.24983 0.845296 4.12476 1.09888 3.04371C1.431 1.62783 2.53653 0.522305 3.9524 0.190185Z" fill="#4376FE"/>
<path fill-rule="evenodd" clip-rule="evenodd" d="M6.84791 14.4371C6.02447 14.244 5.16751 14.244 4.34407 14.4371C3.56236 14.6205 2.95199 15.2309 2.76863 16.0126C2.57547 16.836 2.57547 17.693 2.76863 18.5164C2.95199 19.2981 3.56236 19.9085 4.34407 20.0919C5.16751 20.285 6.02447 20.285 6.8479 20.0919C7.62962 19.9085 8.23999 19.2981 8.42335 18.5164C8.6165 17.693 8.6165 16.836 8.42335 16.0126C8.23999 15.2309 7.62962 14.6205 6.84791 14.4371ZM3.9524 12.7674C5.03346 12.5138 6.15852 12.5138 7.23958 12.7674C8.65545 13.0995 9.76098 14.205 10.0931 15.6209C10.3467 16.702 10.3467 17.827 10.0931 18.9081C9.76098 20.324 8.65545 21.4295 7.23957 21.7616C6.15852 22.0152 5.03346 22.0152 3.9524 21.7616C2.53653 21.4295 1.431 20.324 1.09888 18.9081C0.845296 17.827 0.845296 16.702 1.09888 15.6209C1.431 14.205 2.53653 13.0995 3.9524 12.7674Z" fill="#4376FE"/>
<path fill-rule="evenodd" clip-rule="evenodd" d="M19.4251 1.85994C18.6016 1.66678 17.7447 1.66678 16.9212 1.85994C16.1395 2.0433 15.5291 2.65367 15.3458 3.43538C15.1526 4.25882 15.1526 5.11578 15.3458 5.93922C15.5291 6.72093 16.1395 7.3313 16.9212 7.51466C17.7447 7.70781 18.6016 7.70781 19.4251 7.51466C20.2068 7.3313 20.8171 6.72093 21.0005 5.93921C21.1937 5.11578 21.1937 4.25882 21.0005 3.43538C20.8171 2.65367 20.2068 2.0433 19.4251 1.85994ZM16.5296 0.190185C17.6106 -0.063395 18.7357 -0.0633952 19.8167 0.190185C21.2326 0.522305 22.3381 1.62783 22.6702 3.04371C22.9238 4.12476 22.9238 5.24983 22.6702 6.33088C22.3381 7.74676 21.2326 8.85229 19.8167 9.18441C18.7357 9.43799 17.6106 9.43799 16.5296 9.18441C15.1137 8.85229 14.0081 7.74676 13.676 6.33089C13.4224 5.24983 13.4224 4.12476 13.676 3.04371C14.0081 1.62783 15.1137 0.522305 16.5296 0.190185Z" fill="#4376FE"/>
<path fill-rule="evenodd" clip-rule="evenodd" d="M19.4251 14.4371C18.6016 14.244 17.7447 14.244 16.9212 14.4371C16.1395 14.6205 15.5291 15.2309 15.3458 16.0126C15.1526 16.836 15.1526 17.693 15.3458 18.5164C15.5291 19.2981 16.1395 19.9085 16.9212 20.0919C17.7447 20.285 18.6016 20.285 19.4251 20.0919C20.2068 19.9085 20.8171 19.2981 21.0005 18.5164C21.1937 17.693 21.1937 16.836 21.0005 16.0126C20.8171 15.2309 20.2068 14.6205 19.4251 14.4371ZM16.5296 12.7674C17.6106 12.5138 18.7357 12.5138 19.8167 12.7674C21.2326 13.0995 22.3381 14.205 22.6702 15.6209C22.9238 16.702 22.9238 17.827 22.6702 18.9081C22.3381 20.324 21.2326 21.4295 19.8167 21.7616C18.7357 22.0152 17.6106 22.0152 16.5296 21.7616C15.1137 21.4295 14.0081 20.324 13.676 18.9081C13.4224 17.827 13.4224 16.702 13.676 15.6209C14.0081 14.205 15.1137 13.0995 16.5296 12.7674Z" fill="#4376FE"/>
</svg>
