<svg width="23" height="22" viewBox="0 0 23 22" fill="none" xmlns="http://www.w3.org/2000/svg">
<path fill-rule="evenodd" clip-rule="evenodd" d="M12.7273 0.3642C13.1128 -0.0779833 13.7838 -0.12394 14.226 0.261554L22.4962 7.47152C22.83 7.76254 22.9482 8.23015 22.7928 8.64486C22.6375 9.05957 22.2411 9.33435 21.7982 9.33435H1.97087C1.38424 9.33435 0.908691 8.85879 0.908691 8.27216C0.908691 7.68554 1.38424 7.20998 1.97087 7.20998H18.9634L12.83 1.86284C12.3878 1.47735 12.3418 0.806384 12.7273 0.3642Z" fill="#363853"/>
<path fill-rule="evenodd" clip-rule="evenodd" d="M11.0418 21.5876C10.6563 22.0298 9.98537 22.0757 9.54319 21.6902L1.27297 14.4803C0.939147 14.1892 0.820926 13.7216 0.976316 13.3069C1.13171 12.8922 1.5281 12.6174 1.97096 12.6174L21.7983 12.6174C22.3849 12.6174 22.8605 13.093 22.8605 13.6796C22.8605 14.2662 22.3849 14.7418 21.7983 14.7418L4.80572 14.7418L10.9392 20.0889C11.3814 20.4744 11.4273 21.1454 11.0418 21.5876Z" fill="#363853"/>
</svg>
