<svg width="18" height="22" viewBox="0 0 18 22" fill="none" xmlns="http://www.w3.org/2000/svg">
<path fill-rule="evenodd" clip-rule="evenodd" d="M7.34183 0.311223C7.86826 0.105558 8.43163 0 9 0C9.56837 0 10.1317 0.105558 10.6582 0.311223C11.1846 0.516903 11.6647 0.819006 12.0702 1.20146C12.4757 1.58397 12.7988 2.03944 13.0198 2.54254C13.1254 2.783 13.2066 3.03192 13.2626 3.2859H14.7943C16.5403 3.2859 18 4.6272 18 6.33411V6.49923C18 7.5039 17.4532 8.39023 16.6211 8.8979C17.1298 9.69914 17.4833 10.5997 17.6428 11.5617L17.6865 11.825C17.9062 13.1494 17.8229 14.5029 17.4426 15.794L17.3059 16.2578C16.4486 19.1684 13.9006 21.3368 10.7779 21.8539C9.60157 22.0487 8.39839 22.0487 7.22207 21.8539C4.09936 21.3368 1.55138 19.1684 0.694044 16.2578L0.557417 15.794C0.177097 14.5029 0.0938409 13.1495 0.313511 11.825L0.357174 11.5617C0.516736 10.5997 0.870169 9.69914 1.37889 8.8979C0.546769 8.39023 0 7.5039 0 6.49923V6.33411C0 4.62719 1.45972 3.2859 3.20569 3.2859H4.73743C4.79343 3.03192 4.87462 2.783 4.98022 2.54254C5.20117 2.03944 5.52429 1.58397 5.92984 1.20146C6.33534 0.819006 6.81535 0.516903 7.34183 0.311223ZM6.54934 3.2859L11.4507 3.2859C11.4401 3.25933 11.4291 3.23291 11.4176 3.20665C11.2884 2.91242 11.0982 2.64342 10.8568 2.41568C10.6153 2.18789 10.3272 2.00592 10.0083 1.88133C9.68933 1.75673 9.34665 1.69231 9 1.69231C8.65335 1.69231 8.31067 1.75673 7.99173 1.88133C7.67284 2.00592 7.38473 2.18789 7.14322 2.41568C6.90176 2.64342 6.71164 2.91242 6.58242 3.20665C6.57089 3.23291 6.55986 3.25933 6.54934 3.2859ZM3.20569 4.97821C2.3728 4.97821 1.74194 5.6087 1.74194 6.33411V6.49923C1.74194 7.03608 2.14992 7.52659 2.75713 7.63489C3.01497 7.68087 3.27323 7.72398 3.53186 7.76421C7.3593 8.35963 11.2689 8.32567 15.087 7.66233C15.139 7.6533 15.1909 7.64415 15.2429 7.63489C15.8501 7.52659 16.2581 7.03608 16.2581 6.49923V6.33411C16.2581 5.6087 15.6272 4.97821 14.7943 4.97821H3.20569ZM3.11952 9.41367C2.58782 10.1198 2.22429 10.9424 2.07693 11.8309L2.03326 12.0942C1.85432 13.1731 1.92203 14.2757 2.23213 15.3284L2.36875 15.7922C3.03552 18.0558 5.0297 19.7741 7.51478 20.1857C8.49735 20.3484 9.5026 20.3484 10.4852 20.1857C12.9703 19.7741 14.9645 18.0558 15.6312 15.7922L15.7679 15.3284C16.078 14.2757 16.1457 13.1731 15.9667 12.0942L15.9231 11.8309C15.7757 10.9424 15.4122 10.1198 14.8805 9.41367C14.8349 9.42094 14.7892 9.42813 14.7436 9.43523C10.8946 10.034 6.96665 10.0268 3.11952 9.41367ZM5.80645 16.1804V11.7992C5.80645 11.3318 6.1964 10.953 6.67742 10.953C7.15844 10.953 7.54839 11.3318 7.54839 11.7992V16.1804C7.54839 16.6477 7.15844 17.0265 6.67742 17.0265C6.1964 17.0265 5.80645 16.6477 5.80645 16.1804ZM11.3226 10.953C11.8036 10.953 12.1935 11.3318 12.1935 11.7992V16.1804C12.1935 16.6477 11.8036 17.0265 11.3226 17.0265C10.8416 17.0265 10.4516 16.6477 10.4516 16.1804V11.7992C10.4516 11.3318 10.8416 10.953 11.3226 10.953Z" fill="#E55539"/>
</svg>
